
<svg  stroke-miterlimit="10" style="fill-rule:nonzero;clip-rule:evenodd;stroke-linecap:round;stroke-linejoin:round;" version="1.1" viewBox="0 0 500 500" width="20rem" xml:space="preserve" xmlns="http://www.w3.org/2000/svg"  xmlns:xlink="http://www.w3.org/1999/xlink">
<defs/>
<g id="Untitled" >
<g opacity="1">
<clipPath id="ClipPath">
<path d="M0 0L500 0L500 500L0 500L0 0Z"/>
</clipPath>
<g clip-path="url(#ClipPath)">
<path d="M413.963 399.979L397.95 391.784L390.319 406.693L397.586 410.413L394.886 415.689C392.872 419.624 394.43 424.447 398.365 426.46L402.275 428.461L408.621 416.06L408.622 416.06L415.081 403.44C415.728 402.175 415.228 400.625 413.963 399.979" fill="#3454a7" fill-rule="nonzero" opacity="1" stroke="none"/>
<path d="M403.039 428.854L417.017 401.542L414.365 400.186L400.388 427.498L403.039 428.854Z" fill="#ffffff" fill-rule="nonzero" opacity="1" stroke="none"/>
<path d="M391.82 408.725L393.379 405.299" fill="none" opacity="1" stroke="#ffffff" stroke-linecap="round" stroke-linejoin="round" stroke-width="0.75"/>
<path d="M393.855 409.938L395.414 406.511" fill="none" opacity="1" stroke="#ffffff" stroke-linecap="round" stroke-linejoin="round" stroke-width="0.75"/>
<path d="M395.961 411.192L397.52 407.766" fill="none" opacity="1" stroke="#ffffff" stroke-linecap="round" stroke-linejoin="round" stroke-width="0.75"/>
<path d="M408.501 402.871C408.501 404.838 406.907 406.433 404.94 406.433C402.974 406.433 401.379 404.838 401.379 402.871C401.379 400.904 402.974 399.31 404.94 399.31C406.907 399.31 408.501 400.904 408.501 402.871" fill="#ffffff" fill-rule="nonzero" opacity="1" stroke="none"/>
<path d="M460.671 297.319L460.671 297.32L452.827 288.739C451.869 287.691 450.242 287.618 449.193 288.576L435.917 300.713L447.218 313.076L453.243 307.567L456.679 311.326C459.661 314.589 464.724 314.816 467.987 311.833L471.229 308.87L460.671 297.319Z" fill="#3454a7" fill-rule="nonzero" opacity="1" stroke="none"/>
<path d="M471.862 308.291L451.725 286.262L449.527 288.271L469.664 310.3L471.862 308.291Z" fill="#ffffff" fill-rule="nonzero" opacity="1" stroke="none"/>
<path d="M449.645 312.38L446.981 309.722" fill="none" opacity="1" stroke="#ffffff" stroke-linecap="round" stroke-linejoin="round" stroke-width="0.75"/>
<path d="M451.492 310.898L448.828 308.24" fill="none" opacity="1" stroke="#ffffff" stroke-linecap="round" stroke-linejoin="round" stroke-width="0.75"/>
<path d="M453.405 309.363L450.74 306.705" fill="none" opacity="1" stroke="#ffffff" stroke-linecap="round" stroke-linejoin="round" stroke-width="0.75"/>
<path d="M451.86 298.81C451.86 300.777 450.265 302.371 448.298 302.371C446.332 302.371 444.738 300.777 444.738 298.81C444.738 296.843 446.332 295.248 448.298 295.248C450.265 295.248 451.86 296.843 451.86 298.81" fill="#ffffff" fill-rule="nonzero" opacity="1" stroke="none"/>
<path d="M370.008 343.805C375.119 357.076 391.958 361.082 402.499 351.538L448.828 314.532L433.09 297.699L399.373 321.423L390.197 273.006C388.057 261.421 387.012 249.962 380.737 239.992L370.251 225.992L326.338 230.389L318.457 227.347L313.944 280.494L308.991 329.635C307.77 341.766 312.774 353.691 322.288 361.316L388.652 410.883L399.373 390.309L343.919 340.013L354.465 303.452L370.008 343.805Z" fill="#ea6d4f" fill-rule="nonzero" opacity="1" stroke="none"/>
<path d="M338.58 252.294L351.269 314.531L354.465 303.452L338.58 252.294Z" fill="#f47e2f" fill-rule="nonzero" opacity="1" stroke="none"/>
<path d="M399.373 321.423L399.994 325.815L410.64 313.495L399.373 321.423Z" fill="#f47e2f" fill-rule="nonzero" opacity="1" stroke="none"/>
<path d="M455.484 239.504L455.48 239.504C455.735 239.277 455.917 238.967 455.963 238.605C456.067 237.806 455.498 237.069 454.7 236.966L454.049 236.882C454.019 236.86 453.998 236.839 453.966 236.817C453.966 236.817 453.948 236.78 453.914 236.716C454.322 236.559 454.652 236.22 454.737 235.76C454.867 235.058 454.398 234.377 453.695 234.247L451.542 233.849C451.429 233.766 451.321 233.677 451.203 233.606C449.797 232.751 440.43 230.173 435.153 229.694C435.153 229.694 411.508 200.241 410.473 199.602L389.121 176.53L376.636 197.224L394.322 214.474C394.999 215.816 432.296 245.068 432.296 245.068L432.296 245.077L432.558 245.27L432.56 245.272L433.669 246.085C433.798 246.18 433.946 246.242 434.088 246.314C435.195 247.364 437.702 249.525 441.15 251.15C444.544 252.75 443.062 248.673 441.958 246.25L452.035 245.032L454.147 245.249C454.948 245.331 455.67 244.743 455.752 243.943C455.819 243.285 455.431 242.687 454.848 242.446C454.902 242.431 454.955 242.414 455.01 242.397L455.185 242.414C455.986 242.496 456.708 241.909 456.791 241.108C456.873 240.308 456.285 239.586 455.484 239.504" fill="#ffb380" fill-rule="nonzero" opacity="1" stroke="none"/>
<path d="M267.436 91.1523C267.436 91.1533 267.435 91.1543 267.435 91.1553L267.436 91.1523ZM279.381 136.304L267.699 101.936C267.97 101.248 268.42 100.399 269.203 99.5153C271.497 96.9253 270.763 93.7743 270.763 93.7743C271.852 92.0083 273.212 90.3933 274.345 88.6513C274.463 88.4693 274.583 88.2723 274.562 88.0593C274.538 87.8213 274.34 87.6223 274.13 87.4673C272.909 86.5713 271.328 86.7963 270.241 87.6253C269.603 88.1113 269.09 88.7043 268.633 89.3283C268.416 89.6243 267.623 90.4883 267.462 90.9713L269.282 78.6203C269.443 77.5243 268.72 76.5013 267.675 76.3463C267.153 76.2703 266.645 76.4243 266.248 76.7353C265.996 76.9313 265.796 77.1963 265.657 77.5003C265.646 77.4163 265.64 77.3663 265.64 77.3663C257.192 74.0073 255.046 93.2163 255.046 93.2163L254.118 102.086L257.535 142.159C257.543 142.228 257.561 142.293 257.571 142.361C257.632 146.465 259.88 150.407 263.772 152.446L282.197 163.434L291.902 142.928L279.381 136.304Z" fill="#ffb380" fill-rule="nonzero" opacity="1" stroke="none"/>
<path d="M267.328 90.5459C267.328 90.5459 263.608 89.7469 262.254 93.2539" fill="none" opacity="1" stroke="#ff8b2e" stroke-linecap="round" stroke-linejoin="miter" stroke-width="1"/>
<path d="M265.911 77.4912C265.328 78.8952 264.831 80.3602 264.485 81.8362C264.31 82.5742 264.176 83.3202 264.123 84.0592C264.069 84.7942 264.078 85.5392 264.269 86.1862L264.271 86.1932C264.35 86.4582 264.199 86.7362 263.933 86.8152C263.669 86.8932 263.39 86.7422 263.312 86.4772C263.31 86.4702 263.307 86.4612 263.307 86.4542C263.097 85.5982 263.138 84.7702 263.227 83.9712C263.321 83.1702 263.498 82.3962 263.713 81.6372C264.14 80.1182 264.705 78.6662 265.369 77.2412C265.439 77.0922 265.616 77.0282 265.765 77.0972C265.91 77.1652 265.975 77.3342 265.915 77.4812L265.911 77.4912Z" fill="#ff8b2e" fill-rule="nonzero" opacity="1" stroke="none"/>
<path d="M263.825 77.2222C263.332 77.6832 262.919 78.3762 262.618 79.0532C262.309 79.7432 262.099 80.4812 261.948 81.2282C261.785 81.9742 261.72 82.7422 261.666 83.5072C261.632 84.2762 261.645 85.0462 261.683 85.8162L261.684 85.8262C261.698 86.1022 261.485 86.3372 261.209 86.3512C260.933 86.3652 260.699 86.1522 260.684 85.8762L260.684 85.8572C260.676 85.0522 260.695 84.2472 260.762 83.4432C260.85 82.6402 260.953 81.8372 261.158 81.0502C261.35 80.2632 261.605 79.4852 261.97 78.7492C262.346 78.0142 262.761 77.3222 263.446 76.7302C263.575 76.6182 263.77 76.6332 263.882 76.7622C263.99 76.8882 263.98 77.0762 263.86 77.1892L263.825 77.2222Z" fill="#ff8b2e" fill-rule="nonzero" opacity="1" stroke="none"/>
<path d="M261.319 78.1611C260.697 79.2451 260.198 80.4351 259.847 81.6371C259.498 82.8431 259.319 84.0921 259.408 85.3011L259.409 85.3091C259.429 85.5851 259.222 85.8251 258.947 85.8451C258.671 85.8661 258.431 85.6591 258.411 85.3831C258.41 85.3741 258.41 85.3641 258.41 85.3561C258.383 83.9801 258.657 82.6481 259.092 81.3971C259.535 80.1431 260.105 78.9631 260.83 77.8441C260.917 77.7091 261.097 77.6711 261.232 77.7581C261.363 77.8431 261.404 78.0141 261.328 78.1471L261.319 78.1611Z" fill="#ff8b2e" fill-rule="nonzero" opacity="1" stroke="none"/>
<path d="M370.66 155.801C366.687 151.855 361.301 149.662 355.702 149.714L352.938 149.739C352.322 149.68 351.7 149.658 351.069 149.715L350.569 149.76L348.88 149.776L348.905 149.91L347.542 150.033L327.254 151.859C324.635 152.094 322.346 152.556 320.382 153.298L320.382 153.291L291.902 142.928L282.197 163.435L281.139 165.669L313.534 186.611C315.089 204.514 317.461 232.355 317.612 237.298C317.666 239.033 373.641 231.188 373.564 230.416C372.294 217.731 369.233 200.086 367.767 191.347L375.697 198.782L376.637 197.224L389.121 176.53L390.498 174.247L370.66 155.801Z" fill="#3454a7" fill-rule="nonzero" opacity="1" stroke="none"/>
<path d="M301.265 178.679L316.588 183.265L315.579 210.54L313.535 186.611L301.265 178.679Z" fill="#294c9b" fill-rule="nonzero" opacity="1" stroke="none"/>
<path d="M367.768 191.347L362.824 181.411L362.824 191.603L371.079 211.594L367.768 191.347Z" fill="#294c9b" fill-rule="nonzero" opacity="1" stroke="none"/>
<path d="M371.411 126.337C369.176 125.243 366.296 124.097 362.617 122.74L354.12 110.702C355.717 110.105 357.265 109.104 358.583 107.702C362.395 103.646 362.828 97.8594 359.549 94.7774C356.269 91.6954 350.521 92.4854 346.708 96.5434C345.934 97.3664 345.307 98.2624 344.814 99.1914C341.557 96.6714 336.898 94.9414 330.207 94.9164C313.611 94.8534 311.641 111.725 311.641 111.725C311.641 111.725 314.045 112.432 316.989 112.746C317.991 112.853 319.056 112.914 320.11 112.885L314.068 124.746C308.938 127.528 305.492 129.592 303.302 131.538C301.23 133.376 302.039 136.701 304.652 137.618C306.431 138.241 308.419 139.6 310.01 142.426C313.533 148.681 326.867 150.462 338.518 146.014L338.405 146.461C351.372 150.627 366.351 146.917 369.162 139.658C369.982 137.541 371.097 136.108 372.265 135.139C375.232 132.68 374.873 128.031 371.411 126.337" fill="#333333" fill-rule="nonzero" opacity="1" stroke="none"/>
<path d="M349.102 121.613L349.055 122.034L349.05 122.037C346.104 123.77 342.215 122.567 340.949 119.392C340.843 119.127 340.767 118.847 340.699 118.562C325.892 116.158 327.331 109.075 327.331 109.075C325.984 112.871 320.987 113.173 316.99 112.746L314.612 126.638C313.16 135.122 318.86 143.177 327.344 144.629C327.7 144.69 328.052 144.72 328.405 144.756L328.125 154.682C328.001 159.084 331.47 162.754 335.873 162.878C340.275 163.002 343.945 159.533 344.069 155.131L344.651 134.462C344.916 133.71 345.132 132.932 345.284 132.124L345.285 132.124L346.388 132.313C349.404 132.829 352.267 130.803 352.783 127.787C353.248 125.064 351.639 122.472 349.102 121.613" fill="#ffb380" fill-rule="nonzero" opacity="1" stroke="none"/>
<g opacity="0.460007">
<clipPath id="ClipPath_2">
<path d="M314.385 154.118L345.284 154.118L345.284 112.318L314.385 112.318L314.385 154.118Z"/>
</clipPath>
<g clip-path="url(#ClipPath_2)">
<path d="M326.618 143.198C318.655 141.835 313.305 134.275 314.667 126.312L317.062 112.318L314.611 126.638C313.159 135.122 318.859 143.177 327.344 144.628C327.698 144.689 328.051 144.719 328.403 144.755L328.101 154.117L340.35 140.889L340.336 140.894C342.829 138.675 344.627 135.647 345.284 132.124L343.382 131.799C341.768 139.451 334.393 144.529 326.618 143.198" fill="#ff8b2e" fill-rule="nonzero" opacity="1" stroke="none"/>
</g>
</g>
<path d="M348.983 124.971L347.118 127.638L348.8 128.783" fill="none" opacity="1" stroke="#ff8b2e" stroke-linecap="round" stroke-linejoin="miter" stroke-width="0.5"/>
<path d="M329.538 123.377C329.453 123.87 329.785 124.338 330.277 124.422C330.77 124.506 331.238 124.175 331.323 123.682C331.407 123.19 331.076 122.721 330.583 122.637C330.09 122.553 329.622 122.884 329.538 123.377" fill="#1c3472" fill-rule="nonzero" opacity="1" stroke="none"/>
<path d="M319.382 121.565C319.297 122.058 319.629 122.526 320.121 122.61C320.614 122.695 321.083 122.363 321.167 121.871C321.251 121.378 320.92 120.91 320.427 120.825C319.935 120.741 319.466 121.072 319.382 121.565" fill="#1c3472" fill-rule="nonzero" opacity="1" stroke="none"/>
<path d="M325.589 128.282C324.572 128.111 323.729 128.119 322.945 127.337C322.217 126.609 321.783 125.359 322.298 124.435C322.525 124.026 322.997 123.794 323.484 123.822L324.475 123.877L326.235 118.717" fill="none" opacity="1" stroke="#ff8b2e" stroke-linecap="round" stroke-linejoin="miter" stroke-width="0.5"/>
<path d="M323.034 135.249C323.034 135.249 322.162 133.763 320.517 134.103" fill="none" opacity="1" stroke="#ff8b2e" stroke-linecap="round" stroke-linejoin="miter" stroke-width="0.5"/>
<path d="M334.554 121.008C334.127 121.011 333.679 120.769 333.233 120.56C332.787 120.34 332.335 120.13 331.936 119.962C331.535 119.792 331.069 119.614 330.6 119.448C330.139 119.274 329.651 119.12 329.361 118.814C329.078 118.524 329.115 118.049 329.738 117.709C330.33 117.372 331.558 117.252 332.884 117.809C334.206 118.371 334.96 119.328 335.117 119.981C335.291 120.658 334.963 121.01 334.554 121.008" fill="#1c3472" fill-rule="nonzero" opacity="1" stroke="none"/>
<path d="M318.617 117.648C318.941 117.76 319.346 117.69 319.74 117.645C320.137 117.591 320.535 117.547 320.884 117.521C321.232 117.494 321.634 117.478 322.034 117.471C322.43 117.457 322.843 117.464 323.142 117.305C323.431 117.156 323.526 116.784 323.138 116.365C322.772 115.957 321.866 115.55 320.712 115.635C319.558 115.725 318.738 116.262 318.451 116.72C318.144 117.192 318.305 117.544 318.617 117.648" fill="#1c3472" fill-rule="nonzero" opacity="1" stroke="none"/>
<path d="M331.842 127.292C331.842 127.292 329.655 129.019 327.235 129.905C324.815 130.791 327.667 134.531 331.403 133.387C335.137 132.243 333.789 126.431 331.842 127.292" fill="#ffffff" fill-rule="nonzero" opacity="1" stroke="none"/>
<path d="M319.136 122.457C319.136 122.457 320.223 122.27 320.933 122.825" fill="none" opacity="1" stroke="#ff8b2e" stroke-linecap="round" stroke-linejoin="miter" stroke-width="0.25"/>
<path d="M329.349 124.272C329.349 124.272 330.435 124.085 331.145 124.64" fill="none" opacity="1" stroke="#ff8b2e" stroke-linecap="round" stroke-linejoin="miter" stroke-width="0.25"/>
<path d="M182.497 432.013L172.811 427.284L176.489 419.753L158.323 410.883L150.19 427.539C149.567 428.816 150.096 430.356 151.372 430.979L167.227 438.721L167.227 438.72L186.402 448.083L187.353 446.137C189.912 440.896 187.738 434.573 182.497 432.013" fill="#ea6d4f" fill-rule="nonzero" opacity="1" stroke="none"/>
<path d="M186.015 448.875L148.674 430.642L150.016 427.895L187.357 446.128L186.015 448.875Z" fill="#eaeaea" fill-rule="nonzero" opacity="1" stroke="none"/>
<path d="M173.514 428.128C173.115 428.052 172.998 427.54 173.32 427.292C174.662 426.256 177.366 424.505 177.959 426.66C178.557 428.833 175.219 428.453 173.514 428.128Z" fill="none" opacity="1" stroke="#eaeaea" stroke-linecap="round" stroke-linejoin="round" stroke-width="0.75"/>
<path d="M168.143 424.602C169.452 422.298 171.913 425.39 173.06 427.079C173.24 427.343 173.153 427.665 172.933 427.83C172.824 427.912 172.683 427.956 172.526 427.935C170.548 427.68 166.844 426.889 168.143 424.602" fill="none" opacity="1" stroke="#eaeaea" stroke-linecap="round" stroke-linejoin="round" stroke-width="0.75"/>
<path d="M173.05 428.074C173.05 428.074 171.894 431.261 169.044 431.376" fill="none" opacity="1" stroke="#eaeaea" stroke-linecap="round" stroke-linejoin="round" stroke-width="0.75"/>
<path d="M163.214 424.76C162.313 426.605 160.089 427.369 158.244 426.469C156.4 425.569 155.635 423.344 156.536 421.499C157.436 419.656 159.661 418.891 161.505 419.791C163.349 420.692 164.114 422.916 163.214 424.76" fill="#eaeaea" fill-rule="nonzero" opacity="1" stroke="none"/>
<path d="M57.5205 309.685L39.3125 306.213C37.9165 305.948 36.5705 306.863 36.3045 308.258L32.9995 325.59L29.0035 346.551L31.1315 346.957C36.8605 348.049 42.3905 344.29 43.4825 338.561L45.5015 327.974L53.7345 329.543L57.5205 309.685Z" fill="#ea6d4e" fill-rule="nonzero" opacity="1" stroke="none"/>
<path d="M28.1377 346.386L35.9197 305.567L38.9237 306.139L31.1407 346.959L28.1377 346.386Z" fill="#eaeaea" fill-rule="nonzero" opacity="1" stroke="none"/>
<path d="M44.8716 328.873C44.8396 328.467 45.3036 328.221 45.6276 328.466C46.9796 329.489 49.3796 331.637 47.4556 332.776C45.5166 333.924 45.0056 330.603 44.8716 328.873Z" fill="none" opacity="1" stroke="#eaeaea" stroke-linecap="round" stroke-linejoin="round" stroke-width="0.75"/>
<path d="M46.8628 322.764C49.4298 323.422 47.0928 326.609 45.7658 328.16C45.5578 328.403 45.2248 328.403 45.0078 328.235C44.8998 328.151 44.8208 328.026 44.7988 327.868C44.5248 325.894 44.3158 322.112 46.8628 322.764" fill="none" opacity="1" stroke="#eaeaea" stroke-linecap="round" stroke-linejoin="round" stroke-width="0.75"/>
<path d="M44.8013 328.411C44.8013 328.411 41.4243 328.133 40.5633 325.413" fill="none" opacity="1" stroke="#eaeaea" stroke-linecap="round" stroke-linejoin="round" stroke-width="0.75"/>
<path d="M50.9912 315.494C50.9912 317.789 49.1312 319.648 46.8372 319.648C44.5422 319.648 42.6822 317.789 42.6822 315.494C42.6822 313.2 44.5422 311.34 46.8372 311.34C49.1312 311.34 50.9912 313.2 50.9912 315.494" fill="#eaeaea" fill-rule="nonzero" opacity="1" stroke="none"/>
<path d="M202.184 300.921L180.861 249.512L160.176 244.352L131.338 241.331L109.628 249.099L112.065 320.589L56.9371 306.183C56.0101 306.449 53.0241 332.409 53.0241 332.409L121.012 351.199C131.34 354.125 142.469 349.382 147.091 339.693C149.422 334.807 150.873 329.452 151.308 324.729L154.025 300.105L168.458 316.578C168.458 316.578 155.555 411.719 155.799 411.741C155.799 411.741 178.374 424.56 178.524 423.968L204.002 325.658C206.072 317.432 205.434 308.757 202.184 300.921" fill="#3454a7" fill-rule="nonzero" opacity="1" stroke="none"/>
<path d="M157.846 265.475L159.905 306.816L153.948 300.808L157.846 265.475Z" fill="#1c3472" fill-rule="nonzero" opacity="1" stroke="none"/>
<path d="M82.9258 237.749C82.7648 236.537 82.3908 235.406 81.6728 234.464C81.4088 234.119 81.0968 233.803 80.9068 233.412C80.5068 232.585 81.1368 231.09 81.3138 230.213C81.4628 229.471 81.6128 228.728 81.7618 227.985C81.6758 228.012 81.5998 228.059 81.5108 228.078L67.4188 231.22C67.3838 231.228 67.3508 231.223 67.3158 231.229C66.2928 233.186 65.1798 236.508 65.7848 241.173L64.0438 251.334C63.9388 251.947 64.3548 252.536 64.9678 252.641L65.5498 252.74C66.1638 252.846 66.7518 252.43 66.8568 251.816L68.5948 241.673L66.6488 253.033C66.5298 253.725 66.9988 254.387 67.6898 254.505L68.3448 254.617C69.0348 254.735 69.6968 254.267 69.8168 253.576L69.5898 254.9C69.4708 255.591 69.9398 256.253 70.6308 256.371L71.2858 256.483C71.9768 256.603 72.6388 256.134 72.7578 255.442L74.9238 242.798L72.8898 254.666C72.7718 255.356 73.2398 256.019 73.9318 256.137L74.5868 256.249C75.2778 256.368 75.9398 255.899 76.0578 255.208L78.2938 242.243C78.6568 242.544 78.6718 244.35 78.7588 244.835C78.9688 245.994 79.4428 247.475 80.5058 247.574C81.7568 247.69 82.1718 246.324 82.3238 245.345C82.6708 243.121 83.2588 240.262 82.9258 237.749" fill="#fead6c" fill-rule="nonzero" opacity="1" stroke="none"/>
<path d="M250.232 101.247L234.308 97.2946L232.263 96.7876L213.678 134.006C213.678 134.006 181.066 139.646 181.065 139.646C177.472 137.263 173.248 135.717 168.65 135.316C163.696 134.884 158.743 134.452 153.79 134.019C145.978 133.337 136.288 130.819 128.731 133.333C123.894 134.942 119.101 137.774 114.497 139.983C111.004 141.658 107.512 143.337 104.02 145.014C96.3409 148.703 88.6609 152.391 80.9819 156.08C79.7229 156.684 78.4629 157.289 77.2049 157.893C74.4549 159.214 72.5499 161.824 72.1289 164.845L63.4119 227.526C63.0979 229.782 65.0989 231.653 67.3159 231.23C67.3509 231.223 67.3839 231.227 67.4189 231.22L81.5109 228.079C81.5999 228.059 81.6759 228.012 81.7619 227.985C82.7649 227.667 83.5569 226.88 83.8299 225.851L95.4019 182.186L114.717 175.392C112.356 195.119 108.592 236.564 107.607 247.517C107.477 248.974 108.623 250.222 110.086 250.227L181.376 250.459C182.879 250.464 184.142 249.329 184.296 247.833L191.861 174.504L227.008 157.062C231.9 155.699 235.395 151.787 236.457 147.162C236.484 147.087 236.52 147.018 236.546 146.942L251.398 101.536L250.232 101.247Z" fill="#eb6d4f" fill-rule="nonzero" opacity="1" stroke="none"/>
<path d="M237.691 86.8931L237.691 86.8931C237.691 86.8911 237.691 86.8881 237.691 86.8861L237.691 86.8931ZM251.197 92.2191C251.197 92.2191 253.418 69.9861 243.056 71.7401C243.056 71.7401 243.036 71.7941 243.003 71.8871C242.92 71.5101 242.758 71.1631 242.521 70.8791C242.147 70.4321 241.61 70.1341 241.001 70.0951C239.783 70.0161 238.718 70.9981 238.636 72.2761L237.705 86.6781C237.639 86.0931 236.952 84.9251 236.779 84.5371C236.413 83.7211 235.976 82.9271 235.374 82.2241C234.345 81.0231 232.611 80.3871 231.014 81.1051C230.74 81.2281 230.469 81.4061 230.384 81.6691C230.307 81.9041 230.396 82.1561 230.485 82.3901C231.345 84.6341 232.492 86.7891 233.295 89.0481C233.295 89.0481 231.705 92.4331 233.67 95.9151C233.943 96.3991 234.14 96.8551 234.308 97.2951L250.232 101.247L251.197 92.2191Z" fill="#ffb380" fill-rule="nonzero" opacity="1" stroke="none"/>
<path d="M237.96 86.2295C237.96 86.2295 242.358 86.2265 243.041 90.5185" fill="none" opacity="1" stroke="#ff8b2e" stroke-linecap="round" stroke-linejoin="miter" stroke-width="1"/>
<path d="M243.347 71.6743C243.748 73.4423 244.03 75.2203 244.14 77.0373C244.197 77.9433 244.206 78.8593 244.116 79.7813C244.022 80.7003 243.867 81.6393 243.428 82.5413C243.306 82.7893 243.007 82.8923 242.759 82.7713C242.511 82.6503 242.407 82.3513 242.528 82.1033C242.531 82.0973 242.534 82.0913 242.536 82.0863L242.541 82.0773C242.919 81.3763 243.107 80.5293 243.222 79.6803C243.34 78.8273 243.365 77.9483 243.343 77.0693C243.304 75.3123 243.09 73.5363 242.765 71.8053L242.764 71.7953C242.733 71.6333 242.84 71.4773 243.002 71.4473C243.16 71.4173 243.312 71.5193 243.347 71.6743" fill="#ff8b2e" fill-rule="nonzero" opacity="1" stroke="none"/>
<path d="M245.688 72.0063C246.307 72.7663 246.581 73.5803 246.822 74.4263C247.046 75.2703 247.178 76.1323 247.229 76.9933C247.294 77.8553 247.276 78.7163 247.237 79.5743C247.183 80.4323 247.084 81.2833 246.967 82.1323C246.929 82.4053 246.675 82.5963 246.402 82.5583C246.129 82.5203 245.938 82.2673 245.977 81.9943C245.977 81.9883 245.977 81.9833 245.979 81.9773L245.981 81.9653C246.125 81.1493 246.251 80.3293 246.335 79.5063C246.402 78.6823 246.452 77.8563 246.419 77.0343C246.401 76.2123 246.308 75.3943 246.129 74.6013C245.952 73.8253 245.664 73.0013 245.236 72.4313L245.201 72.3863C245.1 72.2503 245.126 72.0563 245.262 71.9543C245.396 71.8543 245.583 71.8783 245.688 72.0063" fill="#ff8b2e" fill-rule="nonzero" opacity="1" stroke="none"/>
<path d="M248.624 73.6318C249.183 75.0438 249.599 76.4898 249.796 78.0068C249.984 79.5038 249.978 81.1448 249.165 82.6298C249.032 82.8728 248.728 82.9608 248.485 82.8288C248.243 82.6958 248.154 82.3918 248.287 82.1488C248.291 82.1418 248.295 82.1348 248.3 82.1278L248.313 82.1058C249.002 80.9938 249.131 79.5098 249.009 78.0898C248.894 76.6588 248.55 75.2138 248.082 73.8478L248.078 73.8338C248.025 73.6808 248.106 73.5158 248.259 73.4638C248.406 73.4128 248.567 73.4878 248.624 73.6318" fill="#ff8b2e" fill-rule="nonzero" opacity="1" stroke="none"/>
<path d="M213.678 134.006L217.919 141.894L209.826 134.672L213.678 134.006Z" fill="#f47e2f" fill-rule="nonzero" opacity="1" stroke="none"/>
<path d="M191.861 174.503L186.069 170.58L188.965 202.58L191.861 174.503Z" fill="#f47e2f" fill-rule="nonzero" opacity="1" stroke="none"/>
<path d="M114.717 175.391L119.859 172.558L111.878 202.082L114.717 175.391Z" fill="#f47e2f" fill-rule="nonzero" opacity="1" stroke="none"/>
<path d="M195.743 89.2827C194.624 87.5257 192.416 86.8177 190.154 87.2387C192.167 83.2307 192.433 78.9207 190.435 75.4137C186.726 68.9027 176.673 67.6387 167.982 72.5917C164.207 74.7417 161.332 77.7147 159.569 80.9187C159.043 81.2697 158.544 81.6577 158.076 82.0877C156.312 80.7597 153.436 80.7907 150.962 82.3667C147.962 84.2797 146.724 87.7037 148.198 90.0167C148.243 90.0877 148.308 90.1397 148.357 90.2067C146.293 92.3447 145.976 95.8717 147.781 98.7037C148.77 100.257 150.22 101.314 151.788 101.799C149.945 103.712 149.35 106.28 150.514 108.15C151.964 110.478 155.587 110.84 158.607 108.96C161.628 107.079 162.901 103.667 161.451 101.34C161.233 100.989 160.95 100.702 160.641 100.445C161.272 99.3287 161.817 98.0797 162.274 96.8677C167.054 100.1 174.642 100.028 181.415 96.1687C181.978 95.8477 182.514 95.5027 183.036 95.1457L184.403 95.1457C184.516 95.5137 184.664 95.8717 184.877 96.2057C186.446 98.6677 190.15 99.1137 193.15 97.2017C196.151 95.2897 197.312 91.7437 195.743 89.2827" fill="#333333" fill-rule="nonzero" opacity="1" stroke="none"/>
<path d="M163.988 91.1362C163.988 91.1362 160.996 105.12 155.632 104.15C155.18 104.069 153.49 101.416 153.129 100.841C150.97 101.425 149.296 103.284 149.091 105.642C148.827 108.659 151.06 111.32 154.078 111.583L155.379 111.697L154.855 117.706L152.885 140.271C152.576 143.814 155.197 146.936 158.739 147.245L165.087 147.799C168.63 148.108 171.752 145.487 172.061 141.945L173.133 129.664L174.418 129.776C180.098 130.272 185.104 126.069 185.6 120.389L185.663 119.67L185.663 119.669L187.769 95.5342C186.885 95.4212 185.797 95.1472 184.581 95.1462C177.555 95.1382 164.711 95.3192 163.988 91.1362" fill="#fead6c" fill-rule="nonzero" opacity="1" stroke="none"/>
<path d="M174.43 105.735C174.387 106.229 173.952 106.593 173.459 106.55C172.966 106.507 172.601 106.072 172.644 105.579C172.687 105.086 173.121 104.721 173.615 104.764C174.108 104.807 174.473 105.242 174.43 105.735" fill="#1c3472" fill-rule="nonzero" opacity="1" stroke="none"/>
<path d="M185.169 106.672C185.126 107.165 184.691 107.53 184.198 107.487C183.705 107.444 183.339 107.009 183.382 106.516C183.425 106.023 183.86 105.658 184.354 105.701C184.847 105.744 185.212 106.178 185.169 106.672" fill="#1c3472" fill-rule="nonzero" opacity="1" stroke="none"/>
<path d="M178.15 102.524L180.287 109.895C180.334 110.057 180.31 110.226 180.215 110.368C179.875 110.884 178.802 111.968 176.007 111.367" fill="none" opacity="1" stroke="#ff8b2e" stroke-linecap="round" stroke-linejoin="miter" stroke-width="1"/>
<path d="M165.775 100.368C166.364 100.549 167.084 100.398 167.788 100.293C168.495 100.172 169.208 100.068 169.83 99.9987C170.454 99.9297 171.172 99.8747 171.889 99.8387C172.599 99.7877 173.338 99.7767 173.865 99.4727C174.376 99.1867 174.522 98.5147 173.8 97.7877C173.119 97.0767 171.469 96.4057 169.404 96.6287C167.343 96.8617 165.905 97.8757 165.42 98.7147C164.9 99.5797 165.208 100.201 165.775 100.368" fill="#1c3472" fill-rule="nonzero" opacity="1" stroke="none"/>
<path d="M185.808 99.2051C185.378 99.4181 184.805 99.3931 184.249 99.4011C183.69 99.3971 183.129 99.4071 182.641 99.4331C182.152 99.4581 181.592 99.5061 181.037 99.5691C180.483 99.6191 179.913 99.7041 179.469 99.5371C179.041 99.3811 178.844 98.8821 179.308 98.2311C179.742 97.5991 180.927 96.8741 182.544 96.7861C184.159 96.7051 185.393 97.3041 185.873 97.8881C186.382 98.4881 186.224 99.0061 185.808 99.2051" fill="#1c3472" fill-rule="nonzero" opacity="1" stroke="none"/>
<path d="M153.436 103.899L154.552 106.922L152.653 107.596" fill="none" opacity="1" stroke="#ff8b2e" stroke-linecap="round" stroke-linejoin="miter" stroke-width="1"/>
<path d="M174.464 106.616C174.464 106.616 173.473 106.229 172.271 106.531" fill="none" opacity="1" stroke="#ff8b2e" stroke-linecap="round" stroke-linejoin="miter" stroke-width="0.5"/>
<path d="M185.355 107.611C185.355 107.611 184.364 107.224 183.162 107.526" fill="none" opacity="1" stroke="#ff8b2e" stroke-linecap="round" stroke-linejoin="miter" stroke-width="0.5"/>
<path d="M168.05 111.079C168.05 111.079 170.903 112.876 173.927 113.63C176.953 114.385 174.003 119.25 169.362 118.354C164.723 117.457 165.597 110.294 168.05 111.079" fill="#ff8b2e" fill-rule="nonzero" opacity="1" stroke="none"/>
<path d="M168.178 113.928C169.188 114.366 169.652 115.541 169.214 116.552" fill="none" opacity="1" stroke="#fead6c" stroke-linecap="round" stroke-linejoin="miter" stroke-width="0.5"/>
<g opacity="0.639999">
<clipPath id="ClipPath_3">
<path d="M154.815 136.537L185.663 136.537L185.663 111.697L154.815 111.697L154.815 136.537Z"/>
</clipPath>
<g clip-path="url(#ClipPath_3)">
<path d="M175.167 128.48L165.614 127.646C160.283 127.181 156.338 122.482 156.804 117.151L157.265 111.861L155.379 111.697L154.855 117.706C154.416 122.73 157.656 127.221 162.34 128.535L172.32 136.537L172.921 129.646L174.418 129.776C180.098 130.272 185.104 126.069 185.6 120.39L185.663 119.669C185.197 125.001 180.499 128.945 175.167 128.48" fill="#ff8b2e" fill-rule="nonzero" opacity="1" stroke="none"/>
</g>
</g>
<path d="M254.568 43.6162C254.568 43.6162 260.268 55.9082 255.968 66.0362" fill="none" opacity="1" stroke="#ff8f39" stroke-linecap="round" stroke-linejoin="miter" stroke-width="1"/>
<path d="M243.971 54.6572C243.971 54.6572 250.605 62.4912 249.965 67.4072" fill="none" opacity="1" stroke="#ff8f39" stroke-linecap="round" stroke-linejoin="miter" stroke-width="1"/>
<path d="M270.287 58.6313C270.287 58.6313 262.115 64.8443 261.676 69.7813" fill="none" opacity="1" stroke="#ff8f39" stroke-linecap="round" stroke-linejoin="miter" stroke-width="1"/>
</g>
</g>
</g>
</svg>
